<svg width="30" height="30" viewBox="0 0 30 30" fill="none" xmlns="http://www.w3.org/2000/svg">
<path d="M15 0.600006C7.0512 0.600006 0.6 7.05121 0.6 15C0.6 22.9488 7.0512 29.4 15 29.4C22.9488 29.4 29.4 22.9488 29.4 15C29.4 7.05121 22.9488 0.600006 15 0.600006ZM21.6816 10.392C21.4656 12.6672 20.5296 18.1968 20.0544 20.7456C19.8528 21.8256 19.4496 22.1856 19.0752 22.2288C18.24 22.3008 17.6064 21.6816 16.8 21.1488C15.5328 20.3136 14.8128 19.7952 13.5888 18.9888C12.1632 18.0528 13.0848 17.5344 13.9056 16.6992C14.1216 16.4832 17.808 13.128 17.88 12.8256C17.89 12.7798 17.8887 12.7323 17.8761 12.6871C17.8636 12.6419 17.8402 12.6005 17.808 12.5664C17.7216 12.4944 17.6064 12.5232 17.5056 12.5376C17.376 12.5664 15.36 13.9056 11.4288 16.5552C10.8528 16.944 10.3344 17.1456 9.8736 17.1312C9.3552 17.1168 8.376 16.8432 7.6416 16.5984C6.7344 16.3104 6.0288 16.152 6.0864 15.648C6.1152 15.3888 6.4752 15.1296 7.152 14.856C11.3568 13.0272 14.1504 11.8176 15.5472 11.2416C19.5504 9.57121 20.3712 9.28321 20.9184 9.28321C21.0336 9.28321 21.3072 9.31201 21.48 9.45601C21.624 9.57121 21.6672 9.72961 21.6816 9.84481C21.6672 9.93121 21.696 10.1904 21.6816 10.392Z" fill="#FEFAF8"/>
</svg>
