<svg width="30" height="30" viewBox="0 0 30 30" fill="none" xmlns="http://www.w3.org/2000/svg">
<path d="M15 0.600006C22.9531 0.600006 29.4 7.04688 29.4 15C29.4 22.9531 22.9531 29.4 15 29.4C12.4552 29.4041 9.9552 28.7306 7.75682 27.4488L0.605781 29.4L2.55266 22.2461C1.26975 20.047 0.595769 17.5459 0.60002 15C0.60002 7.04688 7.0469 0.600006 15 0.600006ZM10.0925 8.232L9.80449 8.24352C9.61804 8.25488 9.43583 8.30386 9.26881 8.38752C9.11261 8.47598 8.97001 8.58656 8.84546 8.71584C8.67266 8.87856 8.57473 9.01968 8.46961 9.15648C7.93699 9.84898 7.65022 10.6992 7.65458 11.5728C7.65746 12.2784 7.84178 12.9653 8.12978 13.6075C8.71873 14.9064 9.68785 16.2816 10.9666 17.556C11.2747 17.8627 11.5771 18.1709 11.9026 18.4574C13.4915 19.8563 15.3849 20.8652 17.4322 21.4037L18.2501 21.529C18.5165 21.5434 18.7829 21.5232 19.0507 21.5102C19.4701 21.4886 19.8796 21.375 20.2502 21.1776C20.4388 21.0805 20.6229 20.9747 20.8018 20.8608C20.8018 20.8608 20.8637 20.8205 20.9818 20.7312C21.1762 20.5872 21.2957 20.485 21.457 20.3165C21.5765 20.1926 21.6802 20.0472 21.7594 19.8816C21.8717 19.6469 21.984 19.199 22.0301 18.8261C22.0646 18.541 22.0546 18.3854 22.0502 18.289C22.0445 18.1349 21.9163 17.975 21.7766 17.9074L20.9386 17.5315C20.9386 17.5315 19.6858 16.9858 18.9197 16.6373C18.8395 16.6023 18.7536 16.5823 18.6662 16.5782C18.5677 16.5681 18.4682 16.5792 18.3743 16.6107C18.2804 16.6423 18.1944 16.6936 18.1219 16.7611C18.1147 16.7582 18.0182 16.8403 16.9771 18.1018C16.9174 18.1821 16.8351 18.2427 16.7407 18.2761C16.6463 18.3094 16.5441 18.3139 16.4472 18.289C16.3534 18.2638 16.2615 18.232 16.1722 18.1939C15.9936 18.119 15.9317 18.0902 15.8093 18.0384C14.9828 17.6777 14.2176 17.1905 13.5413 16.5941C13.3599 16.4357 13.1914 16.2629 13.0186 16.0958C12.4521 15.5533 11.9583 14.9395 11.5498 14.2699L11.4648 14.1331C11.4038 14.0412 11.3545 13.942 11.3179 13.8379C11.2632 13.6262 11.4058 13.4563 11.4058 13.4563C11.4058 13.4563 11.7557 13.0733 11.9184 12.8659C12.0768 12.6643 12.2107 12.4685 12.2971 12.3288C12.4671 12.0552 12.5203 11.7744 12.4311 11.557C12.0279 10.572 11.6103 9.59136 11.1811 8.61792C11.0962 8.42496 10.8442 8.28672 10.6152 8.25936C10.5375 8.25072 10.4597 8.24208 10.3819 8.23632C10.1885 8.22671 9.99477 8.22864 9.80161 8.24208L10.0911 8.23056L10.0925 8.232Z" fill="#FEFAF8"/>
</svg>
