<svg width="24" height="24" viewBox="0 0 24 24" fill="none" xmlns="http://www.w3.org/2000/svg">
<path d="M19.9952 6.28419C19.746 8.91929 18.6662 15.3236 18.118 18.2755C17.8854 19.5264 17.4203 19.9433 16.9883 19.9934C16.0248 20.0767 15.2938 19.3596 14.3635 18.7425C12.9016 17.7752 12.071 17.1748 10.6589 16.2408C9.0143 15.1568 10.0775 14.5564 11.0244 13.5891C11.2736 13.3389 15.5264 9.45297 15.6095 9.10274C15.621 9.04969 15.6195 8.99462 15.605 8.94231C15.5905 8.88999 15.5636 8.84201 15.5264 8.80254C15.4268 8.71915 15.2938 8.75251 15.1776 8.76919C15.028 8.80254 12.7023 10.3536 8.16706 13.4223C7.50256 13.8726 6.9045 14.1061 6.3729 14.0894C5.77485 14.0727 4.64519 13.7558 3.79795 13.4723C2.75136 13.1388 1.93735 12.9553 2.0038 12.3716C2.03702 12.0714 2.45234 11.7712 3.23313 11.4543C8.084 9.33623 11.3068 7.9353 12.9183 7.26818C17.5365 5.33356 18.4835 5 19.1147 5C19.2476 5 19.5633 5.03336 19.7626 5.20013C19.9288 5.33356 19.9786 5.51701 19.9952 5.65044C19.9786 5.7505 20.0118 6.0507 19.9952 6.28419Z" fill="black"/>
</svg>
