<svg width="24" height="24" viewBox="0 0 24 24" fill="none" xmlns="http://www.w3.org/2000/svg">
<path d="M3 6.00006H6.25174C6.35855 11.5015 8.75576 13.8319 10.6546 14.3124V6H13.7164V10.7447C15.5915 10.5405 17.5615 8.37838 18.2261 6H21.2879C21.0374 7.23347 20.5382 8.40137 19.8215 9.43066C19.1047 10.4599 18.1859 11.3285 17.1224 11.982C18.3098 12.5786 19.3586 13.4236 20.1995 14.461C21.0403 15.4984 21.654 16.7047 22 18H18.6296C18.3191 16.8749 17.6871 15.8676 16.813 15.1047C15.9389 14.3418 14.8616 13.8572 13.7164 13.7117V18H13.3485C6.85699 18 3.1543 13.4956 3 6.00006Z" fill="black"/>
</svg>
