<svg width="335" height="40" viewBox="0 0 335 40" fill="none" xmlns="http://www.w3.org/2000/svg">
<g clip-path="url(#clip0_83_7)">
<path d="M0 0.285583H8.93292C11.2089 0.285583 12.9986 0.915412 14.1386 2.05771C15.0218 2.94573 15.477 4.02935 15.477 5.43375C15.477 7.83571 14.1114 9.12275 12.6329 9.89732C14.9634 10.6993 16.5858 12.0411 16.5858 14.8186C16.5858 18.3941 13.6562 20.311 9.22083 20.311H0V0.285583ZM8.22093 8.72373C10.4697 8.72373 11.9754 7.83571 11.9754 5.95013C11.9754 4.37751 10.7226 3.40343 8.47771 3.40343H3.44322V8.72373H8.22093ZM9.24417 17.1893C11.633 17.1893 13.0842 16.2465 13.0842 14.3844C13.0842 12.6983 11.7459 11.6968 8.98739 11.6968H3.43933V17.1893H9.24417Z" fill="#FEFAF8"/>
<path d="M26.2307 0.285583H40.9918V3.43082H29.7284V8.63766H39.7118V11.7829H29.7284V17.158H41.1358V20.3032H26.2307V0.285583Z" fill="#FEFAF8"/>
<path d="M58.0367 0.144745H61.2815L70.0433 20.3071H66.3471L64.3279 15.4719H54.9125L52.8661 20.3071H49.2828L58.0367 0.144745ZM63.044 12.3579L59.6008 4.35012L56.1887 12.3579H63.044Z" fill="#FEFAF8"/>
<path d="M78.1241 11.8142V0.285583H81.6218V11.6694C81.6218 15.3858 83.5282 17.3888 86.6563 17.3888C89.7844 17.3888 91.6636 15.4993 91.6636 11.8103V0.285583H95.1613V11.6421C95.1613 17.6196 91.8036 20.624 86.598 20.624C81.3923 20.624 78.1202 17.6196 78.1202 11.8142H78.1241Z" fill="#FEFAF8"/>
<path d="M110.557 3.54818H104.242V0.285583H120.4V3.54426H114.085V20.3071H110.557V3.54818Z" fill="#FEFAF8"/>
<path d="M135.651 12.4127L127.742 0.285583H131.866L137.441 9.15013L143.075 0.285583H147.086L139.176 12.3267V20.3071H135.647V12.4127H135.651Z" fill="#FEFAF8"/>
<path d="M168.737 17.3888L170.842 14.8733C172.748 16.532 174.655 17.4748 177.129 17.4748C179.293 17.4748 180.658 16.4733 180.658 14.9007C180.658 13.4689 179.861 12.6983 176.164 11.8103C171.928 10.8088 169.535 9.54914 169.535 5.80538C169.535 2.37457 172.379 0 176.332 0C179.234 0 181.537 0.88802 183.557 2.5154L181.678 5.17555C179.884 3.82983 178.094 3.11785 176.273 3.11785C174.227 3.11785 173.029 4.17408 173.029 5.54719C173.029 7.09242 173.939 7.77702 177.752 8.69242C181.962 9.72127 184.152 11.2391 184.152 14.6112C184.152 18.3589 181.222 20.5888 177.04 20.5888C173.997 20.5888 171.122 19.5325 168.733 17.3848L168.737 17.3888Z" fill="#FEFAF8"/>
<path d="M198.979 12.4127L191.073 0.285583H195.197L200.773 9.15013L206.406 0.285583H210.418L202.508 12.3267V20.3071H198.979V12.4127Z" fill="#FEFAF8"/>
<path d="M216.849 17.3888L218.954 14.8733C220.86 16.532 222.767 17.4748 225.241 17.4748C227.404 17.4748 228.77 16.4733 228.77 14.9007C228.77 13.4689 227.972 12.6983 224.276 11.8103C220.039 10.8088 217.646 9.54914 217.646 5.80538C217.646 2.37457 220.491 0 224.443 0C227.346 0 229.649 0.88802 231.668 2.5154L229.789 5.17555C227.996 3.82983 226.206 3.11785 224.385 3.11785C222.339 3.11785 221.14 4.17408 221.14 5.54719C221.14 7.09242 222.051 7.77702 225.864 8.69242C230.073 9.72127 232.264 11.2391 232.264 14.6112C232.264 18.3589 229.334 20.5888 225.152 20.5888C222.109 20.5888 219.234 19.5325 216.845 17.3848L216.849 17.3888Z" fill="#FEFAF8"/>
<path d="M246.55 3.54818H240.236V0.285583H256.393V3.54426H250.079V20.3071H246.55V3.54818Z" fill="#FEFAF8"/>
<path d="M265.782 0.285583H280.543V3.43082H269.279V8.63766H279.263V11.7829H269.279V17.158H280.687V20.3032H265.782V0.285583Z" fill="#FEFAF8"/>
<path d="M290.534 0.285583H294.261L300.319 9.75258L306.377 0.285583H310.104V20.3071H306.606V5.95013L300.319 15.3897H300.206L293.977 6.00881V20.311H290.534V0.285583Z" fill="#FEFAF8"/>
<path d="M319.581 17.3888L321.686 14.8733C323.593 16.532 325.499 17.4748 327.974 17.4748C330.137 17.4748 331.502 16.4733 331.502 14.9007C331.502 13.4689 330.705 12.6983 327.009 11.8103C322.772 10.8088 320.379 9.54914 320.379 5.80538C320.379 2.37457 323.223 0 327.176 0C330.078 0 332.382 0.88802 334.401 2.5154L332.522 5.17555C330.728 3.82983 328.938 3.11785 327.118 3.11785C325.071 3.11785 323.873 4.17408 323.873 5.54719C323.873 7.09242 324.783 7.77702 328.596 8.69242C332.806 9.72127 334.996 11.2391 334.996 14.6112C334.996 18.3589 332.066 20.5888 327.884 20.5888C324.842 20.5888 321.966 19.5325 319.578 17.3848L319.581 17.3888Z" fill="#FEFAF8"/>
<path d="M1.04659 32.4499H5.88655V38.623H5.19401V33.0875H1.73912V38.623H1.04659V32.4499Z" fill="#FEFAF8"/>
<path d="M9.37256 32.4499H11.6719C13.057 32.4499 13.9674 33.1893 13.9674 34.4254C13.9674 35.7555 12.8625 36.444 11.5552 36.444H10.0651V38.623H9.37256V32.4499ZM11.5824 35.8103C12.6018 35.8103 13.2671 35.2626 13.2671 34.4333C13.2671 33.5531 12.6096 33.0915 11.6175 33.0915H10.0651V35.8064H11.5824V35.8103Z" fill="#FEFAF8"/>
<path d="M16.7103 35.5364C16.7103 33.8347 17.9826 32.3442 19.8501 32.3442C21.7176 32.3442 22.9704 33.8151 22.9704 35.5364C22.9704 37.2577 21.6981 38.7286 19.8306 38.7286C17.9631 38.7286 16.7103 37.2577 16.7103 35.5364ZM22.2506 35.5364C22.2506 34.1359 21.2351 32.9897 19.8306 32.9897C18.4261 32.9897 17.4262 34.1203 17.4262 35.5364C17.4262 36.9525 18.4417 38.0831 19.8462 38.0831C21.2507 38.0831 22.2506 36.9525 22.2506 35.5364Z" fill="#FEFAF8"/>
<path d="M28.9036 38.1731C26.9194 38.1731 25.7989 37.1169 25.7989 35.509C25.7989 33.9012 26.931 32.8567 28.9036 32.8567V32.2504H29.5961V32.8567C31.5687 32.8567 32.7009 33.9051 32.7009 35.509C32.7009 37.113 31.5765 38.1731 29.5961 38.1731V38.8538H28.9036V38.1731ZM28.9036 33.4905C27.3862 33.4905 26.5186 34.2142 26.5186 35.5169C26.5186 36.8196 27.3862 37.5354 28.9036 37.5354V33.4866V33.4905ZM31.9811 35.5169C31.9811 34.2103 31.1135 33.4905 29.5961 33.4905V37.5394C31.1135 37.5394 31.9811 36.8352 31.9811 35.5208V35.5169Z" fill="#FEFAF8"/>
<path d="M35.8017 32.4499H40.237V33.0836H36.4942V35.1922H39.8441V35.8259H36.4942V37.9853H40.2837V38.6191H35.8017V32.446V32.4499Z" fill="#FEFAF8"/>
<path d="M43.155 35.5364C43.155 33.7917 44.4506 32.3442 46.2598 32.3442C47.3725 32.3442 48.0222 32.7589 48.6369 33.3418L48.1817 33.8347C47.6643 33.3418 47.0846 32.9897 46.252 32.9897C44.8941 32.9897 43.8748 34.1007 43.8748 35.5364C43.8748 36.9721 44.9019 38.0831 46.252 38.0831C47.0924 38.0831 47.6448 37.7584 48.2323 37.1912L48.6875 37.6763C48.0456 38.3296 47.3453 38.7247 46.2325 38.7247C44.4623 38.7247 43.155 37.3242 43.155 35.5325V35.5364Z" fill="#FEFAF8"/>
<path d="M51.3759 35.5364C51.3759 33.7917 52.6754 32.3442 54.4807 32.3442C55.5934 32.3442 56.2431 32.7589 56.8579 33.3418L56.4027 33.8347C55.8852 33.3418 55.3055 32.9897 54.4729 32.9897C53.1151 32.9897 52.0957 34.1007 52.0957 35.5364C52.0957 36.9721 53.1228 38.0831 54.4729 38.0831C55.3133 38.0831 55.8658 37.7584 56.4532 37.1912L56.9084 37.6763C56.2665 38.3296 55.5662 38.7247 54.4534 38.7247C52.6832 38.7247 51.3759 37.3242 51.3759 35.5325V35.5364Z" fill="#FEFAF8"/>
<path d="M59.8693 32.4499H60.5618V37.5746L64.2268 32.4499H64.8843V38.623H64.1995V33.4983L60.5423 38.623H59.8654V32.4499H59.8693Z" fill="#FEFAF8"/>
<path d="M68.1018 35.5364C68.1018 33.8347 69.3741 32.3442 71.2416 32.3442C73.1091 32.3442 74.3619 33.8151 74.3619 35.5364C74.3619 37.2577 73.0896 38.7286 71.2221 38.7286C69.3546 38.7286 68.1018 37.2577 68.1018 35.5364ZM73.646 35.5364C73.646 34.1359 72.6267 32.9897 71.226 32.9897C69.8254 32.9897 68.8216 34.1203 68.8216 35.5364C68.8216 36.9525 69.8371 38.0831 71.2416 38.0831C72.6461 38.0831 73.646 36.9525 73.646 35.5364Z" fill="#FEFAF8"/>
<path d="M77.5756 32.4499H78.2681V35.1922H81.8125V32.4499H82.505V38.623H81.8125V35.8455H78.2681V38.623H77.5756V32.4499Z" fill="#FEFAF8"/>
<path d="M88.2631 32.4069H88.9129L91.7103 38.623H90.9633L90.2435 36.9917H86.9014L86.1739 38.623H85.4619L88.2593 32.4069H88.2631ZM89.975 36.3658L88.5822 33.2166L87.1777 36.3658H89.975Z" fill="#FEFAF8"/>
<path d="M93.7567 38.5447L93.8968 37.9814C93.9941 38.0245 94.247 38.0675 94.4415 38.0675C94.9162 38.0675 95.7137 37.778 95.7137 33.5726V32.4538H99.6861V38.6269H98.9936V33.0914H96.379V33.7604C96.379 38.091 95.5036 38.6973 94.5543 38.6973C94.282 38.6973 93.9124 38.6113 93.7567 38.5487V38.5447Z" fill="#FEFAF8"/>
<path d="M103.172 32.4499H103.865V34.8401H105.417C106.732 34.8401 107.802 35.3682 107.802 36.6553C107.802 37.8641 106.915 38.623 105.522 38.623H103.172V32.4499ZM105.503 37.9853C106.483 37.9853 107.109 37.5433 107.109 36.6709C107.109 35.869 106.479 35.4621 105.46 35.4621H103.865V37.9853H105.506H105.503Z" fill="#FEFAF8"/>
<path d="M110.817 32.4499H111.51V35.1922H115.054V32.4499H115.747V38.623H115.054V35.8455H111.51V38.623H110.817V32.4499Z" fill="#FEFAF8"/>
<path d="M118.96 35.5364C118.96 33.8347 120.233 32.3442 122.1 32.3442C123.968 32.3442 125.22 33.8151 125.22 35.5364C125.22 37.2577 123.948 38.7286 122.081 38.7286C120.213 38.7286 118.96 37.2577 118.96 35.5364ZM124.504 35.5364C124.504 34.1359 123.485 32.9897 122.085 32.9897C120.684 32.9897 119.68 34.1203 119.68 35.5364C119.68 36.9525 120.696 38.0831 122.1 38.0831C123.505 38.0831 124.504 36.9525 124.504 35.5364Z" fill="#FEFAF8"/>
<path d="M128.434 32.4499H132.869V33.0836H129.127V35.1922H132.476V35.8259H129.127V37.9853H132.916V38.6191H128.434V32.446V32.4499Z" fill="#FEFAF8"/>
<path d="M140.444 32.4499H141.145L143.382 35.8181L145.619 32.4499H146.319V38.623H145.627V33.6235L143.39 36.9291H143.355L141.118 33.6313V38.623H140.441V32.4499H140.444Z" fill="#FEFAF8"/>
<path d="M149.805 32.4499H154.241V33.0836H150.498V35.1922H153.848V35.8259H150.498V37.9853H154.287V38.6191H149.805V32.446V32.4499Z" fill="#FEFAF8"/>
<path d="M156.653 37.9892H157.283C157.871 37.0465 158.213 35.5286 158.213 33.5296V32.4538H162.228V37.9892H163.026L162.921 40H162.341V38.623H157.361L157.236 40H156.649V37.9892H156.653ZM161.536 37.9892V33.0875H158.878V33.8895C158.878 35.4856 158.571 37.1443 158.061 37.9892H161.532H161.536Z" fill="#FEFAF8"/>
<path d="M165.796 32.4499H166.488V37.5746L170.153 32.4499H170.811V38.623H170.126V33.4983L166.469 38.623H165.792V32.4499H165.796Z" fill="#FEFAF8"/>
<path d="M179.304 38.623H174.297V32.4499H174.989V37.9853H178.499V32.4499H179.191V37.9853H179.989L179.884 39.9961H179.304V38.6191V38.623Z" fill="#FEFAF8"/>
<path d="M182.755 32.4499H183.448V37.5746L187.113 32.4499H187.77V38.623H187.086V33.4983L183.428 38.623H182.751V32.4499H182.755Z" fill="#FEFAF8"/>
<path d="M191.26 32.4499H191.953V35.1922H195.497V32.4499H196.19V38.623H195.497V35.8455H191.953V38.623H191.26V32.4499Z" fill="#FEFAF8"/>
<path d="M199.399 35.5364C199.399 33.7917 200.699 32.3442 202.504 32.3442C203.617 32.3442 204.267 32.7589 204.881 33.3418L204.426 33.8347C203.909 33.3418 203.329 32.9897 202.496 32.9897C201.139 32.9897 200.119 34.1007 200.119 35.5364C200.119 36.9721 201.146 38.0831 202.496 38.0831C203.337 38.0831 203.889 37.7584 204.477 37.1912L204.932 37.6763C204.29 38.3296 203.59 38.7247 202.477 38.7247C200.707 38.7247 199.399 37.3242 199.399 35.5325V35.5364Z" fill="#FEFAF8"/>
<path d="M207.897 32.4499H208.589V36.135L212.114 32.4499H213.009L210.379 35.1492L213.122 38.623H212.254L209.896 35.6342L208.589 36.9643V38.623H207.897V32.4499Z" fill="#FEFAF8"/>
<path d="M215.417 35.5364C215.417 33.8347 216.689 32.3442 218.557 32.3442C220.424 32.3442 221.677 33.8151 221.677 35.5364C221.677 37.2577 220.405 38.7286 218.537 38.7286C216.67 38.7286 215.417 37.2577 215.417 35.5364ZM220.961 35.5364C220.961 34.1359 219.942 32.9897 218.541 32.9897C217.141 32.9897 216.137 34.1203 216.137 35.5364C216.137 36.9525 217.152 38.0831 218.557 38.0831C219.961 38.0831 220.961 36.9525 220.961 35.5364Z" fill="#FEFAF8"/>
<path d="M224.891 32.4499H229.326V33.0836H225.583V35.1922H228.933V35.8259H225.583V37.9853H229.373V38.6191H224.891V32.446V32.4499Z" fill="#FEFAF8"/>
<path d="M236.629 35.5364C236.629 33.8347 237.901 32.3442 239.769 32.3442C241.636 32.3442 242.889 33.8151 242.889 35.5364C242.889 37.2577 241.617 38.7286 239.749 38.7286C237.882 38.7286 236.629 37.2577 236.629 35.5364ZM242.173 35.5364C242.173 34.1359 241.154 32.9897 239.753 32.9897C238.353 32.9897 237.349 34.1203 237.349 35.5364C237.349 36.9525 238.364 38.0831 239.769 38.0831C241.173 38.0831 242.173 36.9525 242.173 35.5364Z" fill="#FEFAF8"/>
<path d="M246.103 32.4499H250.507V33.0836H246.795V34.9809H248.612C249.919 34.9809 250.943 35.5364 250.943 36.7805C250.943 38.0245 250.048 38.623 248.682 38.623H246.103V32.4499ZM248.628 37.9853C249.62 37.9853 250.25 37.6333 250.25 36.7413C250.25 35.9668 249.612 35.5951 248.593 35.5951H246.795V37.9853H248.628Z" fill="#FEFAF8"/>
<path d="M253.791 35.5364C253.791 33.8347 255.063 32.3442 256.93 32.3442C258.798 32.3442 260.051 33.8151 260.051 35.5364C260.051 37.2577 258.778 38.7286 256.911 38.7286C255.043 38.7286 253.791 37.2577 253.791 35.5364ZM259.331 35.5364C259.331 34.1359 258.315 32.9897 256.911 32.9897C255.506 32.9897 254.507 34.1203 254.507 35.5364C254.507 36.9525 255.522 38.0831 256.927 38.0831C258.331 38.0831 259.331 36.9525 259.331 35.5364Z" fill="#FEFAF8"/>
<path d="M263.268 32.4499H265.568C266.953 32.4499 267.863 33.1893 267.863 34.4254C267.863 35.7555 266.758 36.444 265.451 36.444H263.961V38.623H263.268V32.4499ZM265.478 35.8103C266.497 35.8103 267.163 35.2626 267.163 34.4333C267.163 33.5531 266.505 33.0915 265.513 33.0915H263.961V35.8064H265.478V35.8103Z" fill="#FEFAF8"/>
<path d="M270.481 38.4743L270.754 37.9188C270.999 38.0518 271.209 38.1027 271.536 38.1027C271.956 38.1027 272.403 37.8641 272.761 37.1756L270.061 32.4499H270.851L273.112 36.4792L275.069 32.4499H275.823L273.396 37.3242C272.894 38.3374 272.248 38.7247 271.52 38.7247C271.116 38.7247 270.812 38.6347 270.485 38.4704L270.481 38.4743Z" fill="#FEFAF8"/>
<path d="M277.625 37.9892H278.255C278.842 37.0465 279.185 35.5286 279.185 33.5296V32.4538H283.2V37.9892H283.997L283.892 40H283.313V38.623H278.333L278.208 40H277.621V37.9892H277.625ZM282.507 37.9892V33.0875H279.85V33.8895C279.85 35.4856 279.543 37.1443 279.033 37.9892H282.503H282.507Z" fill="#FEFAF8"/>
<path d="M286.495 35.5364C286.495 33.8347 287.768 32.3442 289.635 32.3442C291.503 32.3442 292.755 33.8151 292.755 35.5364C292.755 37.2577 291.483 38.7286 289.616 38.7286C287.748 38.7286 286.495 37.2577 286.495 35.5364ZM292.039 35.5364C292.039 34.1359 291.02 32.9897 289.619 32.9897C288.219 32.9897 287.215 34.1203 287.215 35.5364C287.215 36.9525 288.231 38.0831 289.635 38.0831C291.04 38.0831 292.039 36.9525 292.039 35.5364Z" fill="#FEFAF8"/>
<path d="M295.973 32.4499H298.587C299.288 32.4499 299.852 32.6455 300.194 32.9976C300.447 33.2636 300.587 33.5883 300.587 34.0029C300.587 34.8049 300.097 35.2196 299.615 35.4308C300.342 35.6499 300.93 36.0763 300.93 36.9369C300.93 37.9932 300.043 38.623 298.7 38.623H295.973V32.4499ZM298.471 35.2C299.303 35.2 299.883 34.8206 299.883 34.0812C299.883 33.4748 299.401 33.0758 298.525 33.0758H296.658V35.2H298.471ZM298.716 37.9932C299.646 37.9932 300.225 37.5785 300.225 36.8743C300.225 36.1702 299.665 35.8181 298.595 35.8181H296.658V37.9971H298.72L298.716 37.9932Z" fill="#FEFAF8"/>
<path d="M306.151 32.4069H306.801L309.598 38.623H308.851L308.131 36.9917H304.789L304.062 38.623H303.35L306.147 32.4069H306.151ZM307.863 36.3658L306.47 33.2166L305.065 36.3658H307.863Z" fill="#FEFAF8"/>
<path d="M312.555 32.4499H313.247V35.1922H316.792V32.4499H317.484V38.623H316.792V35.8455H313.247V38.623H312.555V32.4499Z" fill="#FEFAF8"/>
<path d="M320.97 32.4499H321.663V37.5746L325.328 32.4499H325.985V38.623H325.301V33.4983L321.643 38.623H320.966V32.4499H320.97Z" fill="#FEFAF8"/>
<path d="M329.475 32.4499H333.911V33.0836H330.168V35.1922H333.518V35.8259H330.168V37.9853H333.957V38.6191H329.475V32.446V32.4499Z" fill="#FEFAF8"/>
</g>
<defs>
<clipPath id="clip0_83_7">
<rect width="335" height="40" fill="white"/>
</clipPath>
</defs>
</svg>
